<svg width="1230" height="652" viewBox="0 0 1230 652" fill="none" xmlns="http://www.w3.org/2000/svg">
<path d="M1229.91 367.542C1229.95 368.885 1229.98 370.234 1229.99 371.588L1228.99 371.598C1229 372.271 1229 372.946 1229 373.622C1229 374.285 1229 374.947 1228.99 375.609L1229.99 375.619C1229.98 376.95 1229.95 378.282 1229.91 379.613L1228.91 379.584C1228.87 380.909 1228.82 382.234 1228.76 383.559L1229.76 383.608C1229.69 384.938 1229.61 386.268 1229.52 387.599L1228.53 387.531C1228.44 388.852 1228.33 390.172 1228.22 391.493L1229.22 391.579C1229.1 392.906 1228.97 394.232 1228.83 395.558L1227.84 395.453C1227.7 396.773 1227.55 398.092 1227.39 399.411L1228.38 399.534C1228.21 400.853 1228.04 402.171 1227.85 403.488L1226.86 403.348C1226.68 404.659 1226.48 405.97 1226.27 407.281L1227.25 407.439C1227.04 408.755 1226.82 410.071 1226.58 411.385L1225.6 411.209C1225.37 412.512 1225.12 413.814 1224.87 415.115L1225.85 415.308C1225.59 416.613 1225.32 417.917 1225.04 419.22L1224.07 419.011C1223.79 420.308 1223.5 421.604 1223.2 422.899L1224.17 423.125C1223.87 424.422 1223.56 425.717 1223.23 427.01L1222.26 426.768C1221.94 428.052 1221.61 429.335 1221.27 430.616L1222.24 430.874C1221.89 432.161 1221.54 433.446 1221.17 434.729L1220.21 434.456C1219.85 435.732 1219.47 437.007 1219.09 438.28L1220.04 438.569C1219.66 439.841 1219.27 441.11 1218.86 442.378L1217.91 442.074C1217.5 443.337 1217.09 444.598 1216.67 445.857L1217.61 446.176C1217.19 447.44 1216.75 448.702 1216.31 449.962L1215.37 449.628C1214.92 450.876 1214.47 452.121 1214.01 453.364L1214.95 453.712C1214.49 454.959 1214.01 456.204 1213.53 457.447L1212.6 457.085C1212.12 458.323 1211.63 459.558 1211.13 460.792L1212.06 461.167C1211.56 462.4 1211.05 463.631 1210.53 464.859L1209.61 464.47C1209.09 465.69 1208.57 466.908 1208.03 468.123L1208.95 468.525C1208.41 469.744 1207.87 470.961 1207.32 472.175L1206.41 471.76C1205.85 472.968 1205.29 474.174 1204.72 475.377L1205.63 475.805C1205.06 477.005 1204.48 478.203 1203.9 479.398L1203 478.957C1202.41 480.148 1201.82 481.336 1201.22 482.521L1202.11 482.974C1201.51 484.163 1200.9 485.348 1200.27 486.531L1199.39 486.066C1198.77 487.239 1198.15 488.409 1197.52 489.576L1198.4 490.053C1197.76 491.222 1197.12 492.388 1196.47 493.551L1195.6 493.062C1194.95 494.221 1194.29 495.377 1193.63 496.529L1194.49 497.029C1193.83 498.182 1193.15 499.332 1192.47 500.479L1191.61 499.967C1190.93 501.106 1190.25 502.242 1189.56 503.374L1190.41 503.896C1189.71 505.032 1189.01 506.163 1188.3 507.292L1187.45 506.758C1186.74 507.883 1186.03 509.004 1185.3 510.121L1186.14 510.665C1185.42 511.78 1184.69 512.892 1183.95 514L1183.12 513.445C1182.38 514.549 1181.64 515.649 1180.89 516.746L1181.71 517.31C1180.96 518.41 1180.2 519.506 1179.43 520.597L1178.62 520.022C1177.85 521.108 1177.08 522.189 1176.31 523.267L1177.12 523.852C1176.34 524.931 1175.55 526.006 1174.76 527.076L1173.96 526.481C1173.16 527.548 1172.37 528.61 1171.56 529.669L1172.36 530.274C1171.55 531.335 1170.74 532.392 1169.92 533.444L1169.13 532.83C1168.32 533.876 1167.49 534.918 1166.67 535.955L1167.45 536.579C1166.62 537.619 1165.78 538.655 1164.93 539.686L1164.16 539.052C1163.32 540.08 1162.47 541.103 1161.62 542.121L1162.38 542.764C1161.53 543.784 1160.66 544.8 1159.79 545.81L1159.04 545.158C1158.17 546.164 1157.3 547.166 1156.42 548.163L1157.17 548.824C1156.29 549.823 1155.4 550.818 1154.51 551.807L1153.77 551.137C1152.88 552.124 1151.98 553.105 1151.08 554.081L1151.82 554.76C1150.91 555.737 1150 556.71 1149.09 557.678L1148.36 556.99C1147.45 557.955 1146.53 558.914 1145.6 559.868L1146.32 560.564C1145.39 561.52 1144.46 562.472 1143.52 563.417L1142.81 562.713C1141.88 563.656 1140.94 564.593 1139.99 565.524L1140.69 566.237C1139.74 567.172 1138.79 568.1 1137.83 569.023L1137.13 568.302C1136.17 569.222 1135.21 570.137 1134.24 571.046L1134.93 571.775C1133.96 572.686 1132.98 573.592 1132 574.492L1131.32 573.754C1130.34 574.652 1129.36 575.544 1128.37 576.429L1129.03 577.175C1128.04 578.063 1127.04 578.945 1126.04 579.821L1125.38 579.068C1124.38 579.941 1123.37 580.809 1122.36 581.67L1123.01 582.431C1122 583.295 1120.98 584.154 1119.95 585.006L1119.32 584.237C1118.29 585.086 1117.27 585.93 1116.24 586.767L1116.87 587.543C1115.83 588.383 1114.79 589.216 1113.75 590.042L1113.13 589.258C1112.09 590.082 1111.04 590.9 1109.99 591.711L1110.6 592.503C1109.55 593.318 1108.49 594.126 1107.42 594.928L1106.82 594.129C1105.76 594.928 1104.69 595.72 1103.62 596.506L1104.21 597.312C1103.14 598.1 1102.06 598.88 1100.98 599.654L1100.4 598.841C1099.32 599.614 1098.23 600.38 1097.14 601.139L1097.71 601.96C1096.62 602.722 1095.52 603.477 1094.42 604.224L1093.85 603.397C1092.76 604.142 1091.65 604.88 1090.55 605.61L1091.1 606.445C1089.98 607.179 1088.87 607.905 1087.75 608.624L1087.21 607.782C1086.09 608.501 1084.96 609.212 1083.84 609.915L1084.37 610.763C1083.24 611.469 1082.1 612.167 1080.96 612.857L1080.44 612.001C1079.31 612.689 1078.17 613.369 1077.03 614.041L1077.54 614.903C1076.39 615.58 1075.23 616.249 1074.08 616.91L1073.58 616.042C1072.42 616.701 1071.27 617.352 1070.11 617.995L1070.59 618.87C1069.42 619.515 1068.26 620.152 1067.08 620.781L1066.61 619.9C1065.44 620.528 1064.27 621.147 1063.09 621.759L1063.55 622.646C1062.37 623.261 1061.18 623.868 1059.99 624.466L1059.54 623.572C1058.35 624.168 1057.16 624.755 1055.97 625.333L1056.4 626.233C1055.21 626.814 1054.01 627.386 1052.8 627.949L1052.38 627.043C1051.17 627.608 1049.96 628.163 1048.75 628.709L1049.16 629.621C1047.95 630.169 1046.73 630.708 1045.51 631.238L1045.11 630.321C1043.89 630.849 1042.67 631.367 1041.45 631.877L1041.84 632.8C1040.6 633.314 1039.37 633.818 1038.13 634.312L1037.76 633.384C1036.53 633.878 1035.29 634.362 1034.05 634.837L1034.41 635.771C1033.17 636.247 1031.92 636.714 1030.67 637.171L1030.33 636.232C1029.08 636.688 1027.83 637.135 1026.58 637.571L1026.91 638.515C1025.65 638.955 1024.39 639.385 1023.12 639.805L1022.81 638.856C1021.55 639.275 1020.28 639.683 1019.02 640.081L1019.32 641.035C1018.05 641.435 1016.78 641.824 1015.51 642.203L1015.22 641.245C1013.95 641.624 1012.67 641.994 1011.39 642.353L1011.66 643.315C1010.38 643.676 1009.09 644.025 1007.8 644.364L1007.55 643.397C1006.26 643.735 1004.98 644.062 1003.7 644.378L1003.93 645.349C1002.64 645.668 1001.34 645.975 1000.04 646.272L999.821 645.297C998.526 645.593 997.229 645.878 995.931 646.152L996.137 647.131C994.834 647.406 993.529 647.669 992.223 647.922L992.033 646.94C990.731 647.192 989.427 647.433 988.122 647.662L988.296 648.647C986.981 648.878 985.666 649.097 984.349 649.305L984.194 648.317C982.883 648.524 981.571 648.719 980.259 648.902L980.397 649.893C979.079 650.077 977.76 650.249 976.44 650.41L976.319 649.417C975 649.578 973.681 649.726 972.362 649.863L972.464 650.857C971.139 650.994 969.812 651.119 968.485 651.232L968.401 650.236C967.08 650.348 965.759 650.448 964.437 650.536L964.503 651.534C963.173 651.622 961.843 651.698 960.513 651.761L960.465 650.762C959.14 650.825 957.815 650.876 956.49 650.914L956.518 651.914C955.187 651.952 953.855 651.978 952.524 651.99L952.514 650.99C951.851 650.997 951.189 651 950.526 651C949.855 651 949.184 650.997 948.514 650.992L948.506 651.992C947.161 651.982 945.818 651.961 944.478 651.93L944.501 650.93C943.166 650.899 941.834 650.858 940.504 650.807L940.466 651.806C939.127 651.754 937.791 651.692 936.458 651.62L936.512 650.622C935.173 650.549 933.837 650.466 932.504 650.373L932.435 651.371C931.097 651.277 929.761 651.174 928.429 651.06L928.514 650.064C927.186 649.95 925.861 649.826 924.54 649.693L924.439 650.687C923.1 650.552 921.764 650.406 920.431 650.25L920.547 649.257C919.219 649.101 917.895 648.936 916.574 648.76L916.442 649.751C915.116 649.575 913.792 649.388 912.473 649.191L912.62 648.202C911.295 648.005 909.974 647.797 908.656 647.58L908.493 648.566C907.168 648.347 905.847 648.118 904.53 647.879L904.709 646.895C903.397 646.657 902.088 646.409 900.783 646.151L900.589 647.132C899.271 646.872 897.957 646.601 896.647 646.32L896.857 645.342C895.549 645.062 894.245 644.772 892.946 644.472L892.721 645.446C891.416 645.145 890.115 644.833 888.817 644.512L889.058 643.541C887.76 643.22 886.466 642.889 885.177 642.548L884.921 643.514C883.623 643.171 882.33 642.818 881.04 642.455L881.311 641.492C880.027 641.13 878.746 640.759 877.47 640.378L877.184 641.336C875.899 640.952 874.618 640.558 873.342 640.154L873.643 639.201C872.368 638.798 871.098 638.385 869.832 637.962L869.515 638.911C868.244 638.487 866.977 638.053 865.716 637.609L866.047 636.666C864.787 636.223 863.532 635.77 862.281 635.308L861.935 636.246C860.676 635.781 859.421 635.306 858.172 634.822L858.533 633.89C857.289 633.407 856.049 632.915 854.814 632.414L854.438 633.34C853.196 632.836 851.959 632.322 850.727 631.799L851.118 630.879C849.887 630.356 848.662 629.824 847.442 629.283L847.036 630.197C845.811 629.654 844.591 629.101 843.377 628.539L843.797 627.631C842.585 627.071 841.379 626.501 840.178 625.922L839.744 626.823C838.535 626.24 837.332 625.648 836.134 625.047L836.582 624.153C835.389 623.554 834.202 622.946 833.02 622.329L832.557 623.216C831.369 622.596 830.187 621.967 829.01 621.329L829.487 620.45C828.312 619.813 827.143 619.167 825.98 618.512L825.489 619.383C824.321 618.725 823.159 618.059 822.003 617.384L822.508 616.52C821.355 615.847 820.208 615.165 819.068 614.474L818.55 615.33C817.402 614.635 816.261 613.931 815.126 613.219L815.657 612.372C814.527 611.662 813.402 610.944 812.284 610.217L811.739 611.056C810.615 610.325 809.498 609.587 808.387 608.839L808.945 608.01C807.837 607.264 806.735 606.51 805.639 605.747L805.068 606.568C803.968 605.802 802.874 605.028 801.787 604.246L802.372 603.434C801.288 602.655 800.212 601.867 799.142 601.07L798.545 601.873C797.469 601.072 796.4 600.263 795.338 599.446L795.947 598.653C794.889 597.84 793.838 597.018 792.794 596.188L792.171 596.97C791.122 596.137 790.08 595.295 789.045 594.445L789.68 593.672C788.648 592.825 787.623 591.969 786.604 591.106L785.958 591.869C784.936 591.002 783.921 590.128 782.913 589.245L783.572 588.493C782.568 587.614 781.571 586.727 780.581 585.832L779.91 586.574C778.916 585.675 777.929 584.768 776.949 583.853L777.632 583.122C776.656 582.212 775.688 581.293 774.727 580.367L774.033 581.087C773.068 580.158 772.111 579.22 771.161 578.275L771.867 577.566C770.92 576.625 769.981 575.676 769.05 574.72L768.334 575.417C767.399 574.457 766.472 573.49 765.553 572.515L766.28 571.829C765.365 570.858 764.457 569.88 763.557 568.894L762.819 569.569C761.915 568.579 761.019 567.582 760.132 566.579L760.881 565.916C759.996 564.916 759.12 563.91 758.252 562.896L757.493 563.546C756.621 562.529 755.758 561.504 754.903 560.472L755.673 559.834C754.821 558.807 753.977 557.772 753.142 556.731L752.362 557.357C751.524 556.312 750.694 555.26 749.872 554.201L750.662 553.588C749.844 552.534 749.034 551.473 748.232 550.406L747.433 551.006C746.628 549.935 745.833 548.857 745.045 547.773L745.855 547.185C745.071 546.105 744.295 545.019 743.529 543.926L742.71 544.501C741.94 543.404 741.18 542.301 740.428 541.191L741.255 540.63C740.507 539.526 739.767 538.416 739.036 537.299L738.2 537.847C737.466 536.726 736.741 535.598 736.025 534.465L736.87 533.931C736.158 532.803 735.454 531.669 734.759 530.529L733.905 531.049C733.209 529.905 732.521 528.756 731.843 527.601L732.705 527.094C732.029 525.944 731.362 524.787 730.705 523.625L729.835 524.117C729.175 522.951 728.525 521.779 727.884 520.602L728.762 520.124C728.124 518.953 727.496 517.776 726.877 516.594L725.991 517.058C725.37 515.871 724.758 514.678 724.155 513.48L725.049 513.031C724.449 511.839 723.859 510.642 723.279 509.439L722.378 509.873C721.796 508.668 721.224 507.458 720.662 506.242L721.569 505.822C721.009 504.611 720.458 503.395 719.917 502.174L719.003 502.579C718.46 501.354 717.927 500.124 717.404 498.889L718.325 498.499C717.805 497.272 717.295 496.04 716.795 494.803L715.868 495.178C715.366 493.936 714.874 492.689 714.391 491.438L715.324 491.078C714.845 489.833 714.375 488.583 713.915 487.328L712.976 487.673C712.515 486.417 712.065 485.157 711.624 483.892L712.569 483.563C712.13 482.303 711.702 481.039 711.283 479.77L710.333 480.083C709.914 478.811 709.504 477.534 709.104 476.252L710.059 475.955C709.663 474.684 709.277 473.408 708.901 472.129L707.942 472.41C707.564 471.126 707.197 469.837 706.84 468.543L707.804 468.277C707.449 466.99 707.104 465.699 706.769 464.404L705.801 464.654C705.467 463.361 705.143 462.063 704.829 460.762L705.802 460.527C705.489 459.231 705.187 457.931 704.896 456.627L703.92 456.845C703.627 455.536 703.345 454.224 703.074 452.907L704.053 452.705C703.784 451.403 703.526 450.097 703.278 448.787L702.295 448.973C702.046 447.658 701.808 446.34 701.58 445.017L702.566 444.848C702.339 443.531 702.122 442.21 701.916 440.887L700.928 441.04C700.723 439.722 700.529 438.4 700.345 437.074L701.335 436.937C701.152 435.617 700.98 434.294 700.818 432.968L699.825 433.089C699.662 431.758 699.51 430.423 699.369 429.085L700.364 428.98C700.224 427.658 700.095 426.333 699.976 425.005L698.98 425.093C698.862 423.762 698.754 422.427 698.656 421.09L699.654 421.017C699.557 419.685 699.47 418.35 699.395 417.012L698.396 417.068C698.321 415.735 698.256 414.398 698.202 413.059L699.202 413.019C699.148 411.69 699.105 410.358 699.073 409.023L698.073 409.047C698.041 407.707 698.019 406.365 698.008 405.02L699.008 405.012C699.003 404.342 699 403.671 699 403C699 402.329 699.003 401.658 699.008 400.988L698.008 400.98C698.019 399.635 698.041 398.292 698.073 396.952L699.073 396.977C699.105 395.642 699.148 394.31 699.202 392.981L698.202 392.94C698.256 391.601 698.321 390.265 698.396 388.931L699.395 388.988C699.47 387.65 699.557 386.315 699.654 384.983L698.656 384.91C698.754 383.573 698.862 382.238 698.98 380.906L699.976 380.995C700.095 379.667 700.224 378.342 700.364 377.02L699.369 376.915C699.51 375.577 699.662 374.242 699.825 372.911L700.818 373.032C700.98 371.706 701.152 370.383 701.335 369.063L700.345 368.926C700.529 367.6 700.723 366.278 700.928 364.96L701.916 365.113C702.122 363.789 702.339 362.469 702.566 361.152L701.58 360.982C701.808 359.66 702.046 358.342 702.295 357.027L703.278 357.213C703.526 355.903 703.784 354.597 704.053 353.295L703.074 353.093C703.345 351.776 703.627 350.464 703.92 349.155L704.896 349.373C705.187 348.069 705.489 346.769 705.802 345.473L704.829 345.238C705.143 343.937 705.467 342.639 705.801 341.346L706.769 341.596C707.104 340.301 707.449 339.01 707.804 337.723L706.84 337.457C707.197 336.163 707.564 334.874 707.942 333.589L708.901 333.871C709.277 332.592 709.663 331.316 710.059 330.045L709.104 329.748C709.504 328.466 709.914 327.189 710.333 325.917L711.283 326.23C711.702 324.961 712.13 323.697 712.569 322.437L711.624 322.108C712.065 320.843 712.515 319.583 712.976 318.327L713.915 318.672C714.375 317.417 714.845 316.167 715.324 314.922L714.391 314.562C714.874 313.311 715.366 312.064 715.868 310.822L716.795 311.197C717.295 309.96 717.805 308.728 718.325 307.501L717.404 307.111C717.927 305.876 718.46 304.646 719.003 303.421L719.917 303.826C720.458 302.605 721.009 301.389 721.569 300.178L720.662 299.758C721.224 298.542 721.796 297.332 722.378 296.127L723.279 296.561C723.859 295.359 724.449 294.161 725.049 292.969L724.155 292.52C724.758 291.322 725.37 290.129 725.991 288.942L726.877 289.406C727.496 288.224 728.124 287.047 728.762 285.877L727.883 285.398C728.525 284.221 729.175 283.049 729.835 281.883L730.705 282.375C731.362 281.213 732.029 280.057 732.705 278.906L731.843 278.399C732.521 277.244 733.209 276.095 733.905 274.951L734.759 275.472C735.454 274.331 736.158 273.197 736.87 272.069L736.025 271.535C736.741 270.402 737.466 269.275 738.2 268.153L739.036 268.701C739.767 267.585 740.507 266.474 741.255 265.37L740.427 264.809C741.179 263.7 741.94 262.596 742.71 261.5L743.528 262.074C744.295 260.981 745.071 259.895 745.855 258.815L745.045 258.227C745.833 257.143 746.628 256.065 747.433 254.994L748.232 255.594C749.034 254.527 749.844 253.466 750.662 252.412L749.872 251.799C750.694 250.74 751.524 249.688 752.362 248.643L753.142 249.269C753.977 248.228 754.821 247.193 755.672 246.166L754.903 245.528C755.758 244.496 756.621 243.472 757.493 242.454L758.252 243.104C759.12 242.09 759.996 241.084 760.881 240.084L760.131 239.421C761.019 238.418 761.915 237.421 762.819 236.432L763.557 237.106C764.457 236.121 765.365 235.142 766.28 234.171L765.553 233.485C766.472 232.511 767.399 231.543 768.334 230.583L769.05 231.281C769.981 230.324 770.92 229.375 771.866 228.434L771.161 227.725C772.111 226.78 773.068 225.843 774.033 224.913L774.727 225.633C775.688 224.707 776.656 223.788 777.632 222.878L776.949 222.147C777.929 221.232 778.916 220.326 779.91 219.427L780.581 220.168C781.571 219.274 782.567 218.387 783.572 217.507L782.913 216.755C783.921 215.873 784.936 214.998 785.958 214.131L786.604 214.894C787.622 214.031 788.648 213.175 789.68 212.328L789.045 211.555C790.08 210.705 791.122 209.863 792.171 209.03L792.794 209.813C793.838 208.983 794.889 208.161 795.947 207.347L795.338 206.554C796.4 205.737 797.469 204.928 798.545 204.128L799.142 204.93C800.212 204.134 801.288 203.345 802.372 202.566L801.787 201.754C802.874 200.972 803.968 200.198 805.068 199.432L805.639 200.253C806.735 199.49 807.837 198.736 808.945 197.991L808.387 197.161C809.498 196.414 810.615 195.675 811.739 194.945L812.284 195.783C813.402 195.056 814.527 194.338 815.657 193.628L815.126 192.781C816.261 192.069 817.402 191.365 818.55 190.67L819.068 191.526C820.208 190.835 821.355 190.153 822.507 189.48L822.003 188.616C823.159 187.941 824.321 187.275 825.489 186.617L825.98 187.488C827.143 186.833 828.312 186.187 829.487 185.55L829.01 184.671C830.187 184.033 831.369 183.404 832.557 182.784L833.02 183.671C834.202 183.054 835.389 182.446 836.582 181.847L836.134 180.953C837.332 180.352 838.535 179.76 839.744 179.177L840.178 180.078C841.379 179.499 842.585 178.929 843.797 178.369L843.377 177.461C844.591 176.899 845.811 176.346 847.036 175.803L847.442 176.717C848.662 176.176 849.887 175.644 851.118 175.121L850.727 174.201C851.959 173.678 853.196 173.164 854.438 172.66L854.814 173.586C856.049 173.085 857.289 172.593 858.533 172.11L858.172 171.178C859.421 170.694 860.676 170.219 861.935 169.754L862.281 170.692C863.532 170.23 864.787 169.777 866.047 169.334L865.716 168.391C866.978 167.947 868.244 167.513 869.515 167.089L869.832 168.038C871.098 167.615 872.368 167.202 873.643 166.799L873.342 165.846C874.618 165.442 875.899 165.048 877.184 164.664L877.47 165.622C878.746 165.241 880.027 164.87 881.311 164.508L881.04 163.545C882.33 163.182 883.623 162.829 884.921 162.486L885.177 163.452C886.467 163.111 887.76 162.78 889.058 162.459L888.818 161.488C890.115 161.167 891.416 160.855 892.721 160.554L892.946 161.528C894.246 161.228 895.549 160.938 896.857 160.658L896.647 159.68C897.957 159.399 899.271 159.128 900.589 158.868L900.783 159.849C902.088 159.591 903.397 159.343 904.709 159.104L904.53 158.121C905.848 157.882 907.168 157.653 908.493 157.434L908.656 158.42C909.974 158.203 911.295 157.995 912.62 157.798L912.473 156.809C913.793 156.612 915.116 156.425 916.442 156.249L916.574 157.24C917.895 157.064 919.22 156.899 920.547 156.743L920.431 155.75C921.764 155.594 923.1 155.448 924.439 155.313L924.54 156.307C925.862 156.174 927.187 156.05 928.515 155.936L928.429 154.94C929.762 154.826 931.097 154.723 932.435 154.629L932.505 155.627C933.838 155.534 935.173 155.451 936.512 155.378L936.458 154.38C937.791 154.308 939.127 154.246 940.466 154.194L940.505 155.193C941.834 155.142 943.167 155.101 944.502 155.07L944.478 154.07C945.819 154.039 947.161 154.018 948.506 154.008L948.514 155.008C949.184 155.003 949.855 155 950.526 155C951.196 155 951.865 155.002 952.535 155.006L952.54 154.006C953.883 154.013 955.226 154.029 956.569 154.051L956.552 155.051C957.891 155.074 959.229 155.104 960.568 155.142L960.596 154.142C961.938 154.18 963.281 154.226 964.622 154.279L964.583 155.278C965.921 155.331 967.259 155.391 968.597 155.459L968.648 154.46C969.989 154.528 971.329 154.604 972.67 154.687L972.608 155.685C973.944 155.768 975.28 155.858 976.615 155.956L976.688 154.959C978.028 155.057 979.367 155.162 980.706 155.275L980.622 156.272C981.956 156.384 983.29 156.505 984.623 156.632L984.718 155.637C986.055 155.765 987.39 155.9 988.725 156.043L988.618 157.037C989.951 157.18 991.282 157.33 992.612 157.487L992.729 156.494C994.064 156.652 995.397 156.817 996.728 156.989L996.6 157.981C997.928 158.153 999.254 158.333 1000.58 158.52L1000.72 157.529C1002.05 157.717 1003.38 157.912 1004.71 158.114L1004.55 159.103C1005.88 159.305 1007.2 159.514 1008.52 159.731L1008.69 158.744C1010.01 158.962 1011.34 159.186 1012.66 159.418L1012.48 160.403C1013.8 160.635 1015.12 160.874 1016.44 161.12L1016.62 160.137C1017.94 160.384 1019.26 160.639 1020.58 160.901L1020.38 161.882C1021.7 162.143 1023.01 162.412 1024.32 162.688L1024.52 161.709C1025.84 161.986 1027.15 162.27 1028.46 162.561L1028.24 163.537C1029.55 163.829 1030.86 164.128 1032.16 164.434L1032.39 163.46C1033.7 163.767 1035 164.082 1036.31 164.403L1036.07 165.374C1037.37 165.695 1038.66 166.023 1039.96 166.358L1040.21 165.39C1041.51 165.727 1042.81 166.072 1044.11 166.424L1043.84 167.389C1045.14 167.74 1046.43 168.099 1047.71 168.465L1047.99 167.503C1049.28 167.87 1050.57 168.244 1051.85 168.625L1051.57 169.584C1052.85 169.965 1054.14 170.354 1055.41 170.75L1055.71 169.795C1057 170.193 1058.28 170.598 1059.55 171.011L1059.25 171.962C1060.52 172.374 1061.79 172.792 1063.06 173.218L1063.38 172.27C1064.65 172.698 1065.92 173.134 1067.19 173.577L1066.86 174.521C1068.12 174.964 1069.39 175.414 1070.64 175.871L1070.99 174.931C1072.25 175.39 1073.51 175.856 1074.76 176.329L1074.41 177.264C1075.66 177.737 1076.91 178.218 1078.15 178.705L1078.52 177.774C1079.77 178.265 1081.02 178.763 1082.27 179.268L1081.89 180.195C1083.13 180.699 1084.37 181.21 1085.6 181.728L1085.99 180.807C1087.22 181.327 1088.46 181.856 1089.69 182.391L1089.29 183.308C1090.52 183.844 1091.74 184.388 1092.96 184.939L1093.38 184.028C1094.6 184.581 1095.82 185.141 1097.03 185.709L1096.61 186.615C1097.82 187.181 1099.03 187.754 1100.23 188.335L1100.67 187.435C1101.88 188.021 1103.09 188.615 1104.29 189.216L1103.84 190.11C1105.04 190.709 1106.23 191.316 1107.42 191.93L1107.88 191.041C1109.07 191.657 1110.26 192.28 1111.44 192.911L1110.97 193.793C1112.15 194.426 1113.33 195.066 1114.5 195.714L1114.99 194.839C1116.16 195.489 1117.33 196.146 1118.5 196.811L1118 197.679C1119.16 198.342 1120.32 199.012 1121.47 199.689L1121.98 198.827C1123.14 199.512 1124.29 200.204 1125.44 200.903L1124.92 201.757C1126.06 202.454 1127.2 203.159 1128.33 203.871L1128.87 203.024C1130 203.739 1131.13 204.46 1132.25 205.189L1131.71 206.028C1132.83 206.76 1133.95 207.499 1135.06 208.245L1135.62 207.415C1136.74 208.165 1137.85 208.923 1138.95 209.687L1138.38 210.509C1139.48 211.271 1140.57 212.04 1141.65 212.816L1142.23 212.004C1143.33 212.789 1144.41 213.581 1145.49 214.381L1144.9 215.185C1145.98 215.982 1147.04 216.787 1148.1 217.6L1148.71 216.806C1149.78 217.621 1150.83 218.444 1151.88 219.275L1151.26 220.059C1152.32 220.892 1153.36 221.732 1154.4 222.579L1155.03 221.806C1156.07 222.657 1157.1 223.517 1158.13 224.383L1157.48 225.147C1158.5 226.01 1159.51 226.88 1160.51 227.758L1161.17 227.006C1162.18 227.894 1163.19 228.789 1164.19 229.691L1163.51 230.432C1164.51 231.331 1165.49 232.238 1166.46 233.152L1167.15 232.423C1168.12 233.341 1169.09 234.266 1170.05 235.199L1169.36 235.916C1170.32 236.851 1171.27 237.793 1172.21 238.743L1172.92 238.039C1173.87 238.993 1174.81 239.954 1175.73 240.923L1175.01 241.615C1175.94 242.58 1176.85 243.552 1177.75 244.532L1178.49 243.854C1179.4 244.843 1180.3 245.84 1181.2 246.845L1180.45 247.509C1181.34 248.509 1182.22 249.516 1183.08 250.53L1183.84 249.88C1184.72 250.9 1185.58 251.928 1186.43 252.963L1185.66 253.598C1186.51 254.632 1187.35 255.673 1188.18 256.722L1188.96 256.101C1189.8 257.155 1190.62 258.216 1191.43 259.285L1190.63 259.89C1191.44 260.954 1192.24 262.025 1193.02 263.104L1193.83 262.515C1194.62 263.601 1195.4 264.695 1196.17 265.796L1195.35 266.369C1196.12 267.464 1196.87 268.568 1197.61 269.678L1198.45 269.122C1199.19 270.239 1199.93 271.362 1200.65 272.493L1199.81 273.032C1200.52 274.158 1201.23 275.291 1201.93 276.431L1202.78 275.911C1203.48 277.057 1204.17 278.211 1204.84 279.372L1203.98 279.874C1204.65 281.029 1205.31 282.19 1205.96 283.359L1206.83 282.874C1207.48 284.048 1208.12 285.23 1208.74 286.418L1207.86 286.884C1208.48 288.066 1209.09 289.255 1209.69 290.452L1210.58 290.005C1211.18 291.206 1211.77 292.413 1212.34 293.628L1211.44 294.055C1212 295.261 1212.56 296.474 1213.11 297.694L1214.02 297.287C1214.57 298.513 1215.1 299.747 1215.62 300.988L1214.7 301.375C1215.21 302.604 1215.72 303.84 1216.21 305.082L1217.14 304.716C1217.63 305.962 1218.11 307.216 1218.57 308.476L1217.63 308.823C1218.1 310.076 1218.55 311.337 1218.98 312.604L1219.93 312.278C1220.36 313.544 1220.78 314.816 1221.19 316.095L1220.24 316.4C1220.65 317.668 1221.04 318.944 1221.42 320.226L1222.38 319.942C1222.76 321.231 1223.12 322.527 1223.48 323.829L1222.51 324.091C1222.86 325.374 1223.19 326.663 1223.52 327.959L1224.49 327.718C1224.81 329.017 1225.12 330.322 1225.41 331.634L1224.44 331.854C1224.73 333.158 1225.01 334.469 1225.28 335.787L1226.26 335.589C1226.52 336.897 1226.77 338.212 1227.01 339.532L1226.02 339.709C1226.26 341.018 1226.48 342.334 1226.69 343.655L1227.68 343.5C1227.89 344.828 1228.08 346.163 1228.26 347.504L1227.27 347.638C1227.45 348.952 1227.61 350.273 1227.76 351.6L1228.76 351.487C1228.91 352.814 1229.05 354.147 1229.17 355.486L1228.17 355.578C1228.3 356.91 1228.41 358.248 1228.5 359.591L1229.5 359.52C1229.6 360.851 1229.68 362.188 1229.75 363.53L1228.75 363.58C1228.81 364.906 1228.87 366.236 1228.91 367.573L1229.91 367.542Z" stroke="black" stroke-opacity="0.26" stroke-width="2" stroke-dasharray="4 4"/>
<path d="M-224 0H669C889.914 0 1069 179.086 1069 400V578H-224V0Z" fill="#ECF7FF"/>
</svg>
