<svg width="52" height="48" viewBox="0 0 52 48" fill="none" xmlns="http://www.w3.org/2000/svg">
<rect width="52" height="48" rx="10" fill="#FFD4D4"/>
<g clip-path="url(#clip0_116_10)">
<path d="M31.4428 23.5486C30.6535 23.5486 29.9115 23.2414 29.3537 22.6833C28.7956 22.1252 28.488 21.3835 28.488 20.5942C28.488 19.8053 28.7952 19.0633 29.3537 18.5052C29.9115 17.9471 30.6535 17.6399 31.4428 17.6399C32.2317 17.6399 32.9737 17.9471 33.5318 18.5052C34.6835 19.6572 34.6835 21.5316 33.5318 22.6833C32.9741 23.2414 32.2317 23.5486 31.4428 23.5486ZM31.4428 18.4276C30.8638 18.4276 30.3199 18.6529 29.9107 19.0621C29.5014 19.4713 29.2758 20.0156 29.2758 20.5942C29.2758 21.1728 29.5011 21.7171 29.9107 22.1263C30.3199 22.5356 30.8638 22.7609 31.4428 22.7609C32.0214 22.7609 32.5657 22.5356 32.9749 22.1263C33.8197 21.2815 33.8197 19.9069 32.9749 19.0621C32.5657 18.6529 32.0214 18.4276 31.4428 18.4276ZM29.6322 18.7836H29.6361H29.6322Z" fill="#331B3B"/>
<path d="M43.7215 10.6693C43.7219 10.4921 43.7207 10.314 43.7163 10.1348C43.7144 10.036 43.7104 9.9367 43.7069 9.83785C43.7026 9.71417 43.6986 9.59129 43.6923 9.46683C43.6801 9.22933 43.6647 8.99143 43.6447 8.75197C43.6289 8.56016 43.4769 8.40812 43.2851 8.39198C43.0444 8.37189 42.8053 8.35653 42.5667 8.34432C42.4489 8.33802 42.3319 8.33487 42.2145 8.33053C42.1086 8.3266 42.0022 8.32266 41.8967 8.32029C41.7246 8.31675 41.5536 8.31557 41.3831 8.31557C41.3532 8.31557 41.3236 8.31557 41.2937 8.31596C37.8068 8.33408 34.6083 9.20767 31.3715 11.0175C31.3676 11.0198 31.3656 11.0242 31.3617 11.0265C28.7507 12.4803 26.1422 14.5362 23.4391 17.2397C23.0905 17.5883 22.7479 17.9412 22.4119 18.2968C22.3989 18.2964 22.3871 18.2909 22.3737 18.2921L16.9593 18.7037C16.8837 18.7096 16.8108 18.7368 16.7505 18.7829L8.42902 25.1142C8.29944 25.2127 8.2439 25.3804 8.2888 25.5364C8.3337 25.6928 8.46998 25.8054 8.63186 25.82L16.5879 26.538L19.7856 29.7354C18.7431 29.7291 17.5706 30.2171 16.6332 31.1541C16.2086 31.5787 15.8679 32.0544 15.6198 32.5712C15.2724 33.3073 14.4996 35.2262 13.6812 37.2582L13.2873 38.2361C13.2282 38.3826 13.2625 38.5504 13.374 38.6619C13.4492 38.7371 13.55 38.7773 13.6524 38.7773C13.702 38.7773 13.7521 38.7682 13.7997 38.7489L14.8116 38.3413C16.8281 37.5291 18.7325 36.7623 19.4674 36.4157C19.981 36.1683 20.4572 35.828 20.8818 35.4031C21.6246 34.6602 22.1157 33.7481 22.2646 32.8343C22.2969 32.6366 22.3083 32.4448 22.3075 32.2577L25.425 35.3739L26.1434 43.3307C26.1579 43.4926 26.2706 43.6289 26.427 43.6738C26.4628 43.684 26.4998 43.6891 26.5357 43.6891C26.6566 43.6891 26.7736 43.6332 26.8492 43.5336L33.1809 35.2124C33.2266 35.1522 33.2546 35.0797 33.2601 35.0041L33.6638 29.6956C34.0454 29.3368 34.4239 28.9713 34.7977 28.5975C37.5016 25.8937 39.5575 23.2851 41.0117 20.6738C41.0137 20.6702 41.0176 20.6687 41.0196 20.6651C42.8313 17.4252 43.7049 14.2243 43.7211 10.7315C43.7211 10.711 43.7211 10.6902 43.7215 10.6693ZM42.3177 15.452C42.3055 15.498 42.2925 15.5437 42.2799 15.5898C41.914 16.9081 41.3662 18.3142 40.571 19.8112L32.2258 11.4661C33.7205 10.672 35.125 10.125 36.4413 9.75907C36.4909 9.74568 36.5406 9.7315 36.5902 9.71811C36.6875 9.69172 36.784 9.6677 36.8805 9.64367C38.808 9.16789 40.7848 9.00798 42.8853 9.15213C43.0294 11.2502 42.8699 13.2259 42.3949 15.1514C42.3697 15.2511 42.3449 15.3511 42.3177 15.452ZM17.135 19.4796L21.6407 19.1373C20.8286 20.0373 20.0621 20.9526 19.3457 21.8763C19.3445 21.8774 19.3429 21.8782 19.3418 21.8794C19.311 21.9188 19.2831 21.9582 19.2528 21.9976C19.0219 22.2969 18.7951 22.5966 18.5757 22.8971C18.5316 22.9578 18.4898 23.0181 18.4461 23.0783C18.2389 23.3651 18.0341 23.6518 17.838 23.9385C17.7561 24.0582 17.6801 24.1768 17.6001 24.2961C17.4477 24.5238 17.2937 24.7518 17.1487 24.9795C16.9825 25.2394 16.827 25.4974 16.6714 25.755L9.7138 25.1264L17.135 19.4796ZM17.9258 25.2284C18.0235 25.0776 18.1255 24.9255 18.2271 24.7739C18.3307 24.6183 18.4355 24.4624 18.5426 24.3068C18.6753 24.1142 18.8108 23.9208 18.9491 23.7274C19.0231 23.6234 19.0988 23.5198 19.174 23.4163C19.337 23.1921 19.5017 22.968 19.6722 22.7435C19.6789 22.7349 19.686 22.7258 19.6927 22.7171L29.3199 32.3443C29.3088 32.3526 29.2978 32.3613 29.2868 32.3699C29.0666 32.5369 28.8468 32.698 28.6271 32.8583C28.5195 32.9367 28.412 33.0147 28.3045 33.0915C28.1139 33.2278 27.9236 33.3609 27.7342 33.4917C27.5735 33.6023 27.4128 33.7102 27.2521 33.817C27.1056 33.9151 26.9587 34.0139 26.8125 34.1084C26.4967 34.3125 26.1808 34.5118 25.8665 34.7012L17.3354 26.1709C17.5241 25.8574 17.7226 25.5431 17.9258 25.2284ZM21.4875 32.7079C21.365 33.4597 20.9523 34.2191 20.3252 34.8461C19.9633 35.2077 19.56 35.4972 19.1287 35.7044C18.4174 36.0403 16.4347 36.8383 14.5173 37.6107L14.3637 37.6725L14.413 37.55C15.1905 35.6193 15.9943 33.6228 16.3307 32.9103C16.539 32.4759 16.8285 32.073 17.1901 31.7114C17.9723 30.9292 18.9349 30.5085 19.7593 30.5085C20.263 30.5085 20.7152 30.6653 21.0429 30.9934C21.4446 31.3943 21.6025 32.0028 21.4875 32.7079ZM32.4834 34.8284L26.8366 42.2488L26.2186 35.4042C26.4971 35.2372 26.7763 35.0679 27.0575 34.8879C27.2793 34.7465 27.501 34.5964 27.7228 34.4483C27.8484 34.3644 27.9733 34.2845 28.0993 34.1978C28.3785 34.0068 28.6574 33.8075 28.9363 33.6063C29.0056 33.5562 29.0745 33.5086 29.1438 33.4582C29.4337 33.2467 29.7224 33.0277 30.0111 32.8055C30.0599 32.7681 30.1088 32.7331 30.1576 32.6953C30.1592 32.6941 30.16 32.6917 30.1616 32.6905C31.0552 31.9973 31.9422 31.2581 32.8142 30.4747L32.4834 34.8284ZM34.2408 28.0406C32.8568 29.4246 31.4121 30.7063 29.9489 31.8591L20.1775 22.0882C21.3304 20.625 22.612 19.1803 23.9964 17.7962C26.7149 15.0778 29.2147 13.179 31.5086 11.8631L40.1739 20.5285C38.858 22.8223 36.9592 25.3222 34.2408 28.0406Z" fill="#331B3B"/>
</g>
<defs>
<clipPath id="clip0_116_10">
<rect width="36" height="36" fill="white" transform="translate(8 8)"/>
</clipPath>
</defs>
</svg>
